<svg width="739" height="739" viewBox="0 0 739 739" fill="none" xmlns="http://www.w3.org/2000/svg">
<g clip-path="url(#clip0_281_401)">
<rect width="739" height="739" fill="white"/>
<g filter="url(#filter0_d_281_401)">
<path fill-rule="evenodd" clip-rule="evenodd" d="M582.744 371.968V435.363H577.604V371.968H582.744Z" fill="#FFD215"/>
<path fill-rule="evenodd" clip-rule="evenodd" d="M580.174 433.466C581.63 433.466 582.744 434.208 582.744 435.057C582.744 435.905 581.63 436.648 580.174 436.648C578.718 436.648 577.604 435.905 577.604 435.057C577.604 434.208 578.718 433.466 580.174 433.466Z" fill="#FFD215"/>
<path fill-rule="evenodd" clip-rule="evenodd" d="M569.895 372.824V421.656H564.755V372.824H569.895Z" fill="#3C8AFE"/>
<path fill-rule="evenodd" clip-rule="evenodd" d="M567.325 419.943C568.781 419.943 569.895 420.685 569.895 421.534C569.895 422.382 568.781 423.125 567.325 423.125C565.869 423.125 564.755 422.382 564.755 421.534C564.755 420.685 565.869 419.943 567.325 419.943Z" fill="#3C8AFE"/>
<path fill-rule="evenodd" clip-rule="evenodd" d="M567.325 371.968C568.781 371.968 569.895 372.368 569.895 372.824C569.895 373.281 568.781 373.681 567.325 373.681C565.869 373.681 564.755 373.281 564.755 372.824C564.755 372.368 565.869 371.968 567.325 371.968Z" fill="#06AFFF"/>
<path fill-rule="evenodd" clip-rule="evenodd" d="M595.595 357.404V386.532H590.455V357.404H595.595Z" fill="#17CE8A"/>
<path fill-rule="evenodd" clip-rule="evenodd" d="M593.025 384.818C594.482 384.818 595.595 385.561 595.595 386.409C595.595 387.258 594.482 388 593.025 388C591.569 388 590.455 387.258 590.455 386.409C590.455 385.561 591.569 384.818 593.025 384.818Z" fill="#17CE8A"/>
<path fill-rule="evenodd" clip-rule="evenodd" d="M429.551 308.412L429.551 293.624C429.551 293.624 570.3 230.443 571.352 231.044L711.428 295.047V308.737C711.428 308.737 711.428 310.102 710.063 310.784L572.479 390.128C571.427 390.729 569.775 390.729 568.723 390.128L430.377 310.44C429.325 309.839 429.551 308.412 429.551 308.412Z" fill="#405FCB"/>
<path fill-rule="evenodd" clip-rule="evenodd" d="M430.212 292.657L568.867 213.93C569.918 213.33 571.571 213.33 572.622 213.93L710.727 294.022C711.778 294.623 711.778 295.599 710.727 296.2L573.824 374.884C572.772 375.485 571.12 375.485 570.069 374.884L430.288 294.835C429.236 294.234 429.161 293.258 430.212 292.657Z" fill="#4D73F8"/>
<path fill-rule="evenodd" clip-rule="evenodd" d="M513.665 292.179L569.369 259.929C569.784 259.678 570.448 259.678 570.946 259.929L626.982 292.43C627.397 292.682 627.397 293.101 626.982 293.352L571.361 325.518C570.946 325.769 570.282 325.769 569.784 325.518L513.665 293.017C513.25 292.765 513.25 292.43 513.665 292.179Z" fill="#405FCB"/>
<path fill-rule="evenodd" clip-rule="evenodd" d="M523.913 298.165C523.913 298.165 568.665 272.348 569.038 272.163C569.411 271.978 570.064 271.978 570.437 272.163C570.81 272.348 617.013 298.292 617.013 298.292C617.386 298.478 617.386 298.848 617.013 299.126L571.18 325.706C570.807 325.892 569.996 325.892 569.623 325.706L523.913 298.999C523.54 298.721 523.54 298.35 523.913 298.165Z" fill="#F9F9FE"/>
<path fill-rule="evenodd" clip-rule="evenodd" d="M557.044 407.092V444.856H551.904V407.092H557.044Z" fill="#F32626"/>
<path fill-rule="evenodd" clip-rule="evenodd" d="M554.474 444.069C555.931 444.069 557.044 444.436 557.044 444.856C557.044 445.276 555.931 445.643 554.474 445.643C553.018 445.643 551.904 445.276 551.904 444.856C551.904 444.436 553.018 444.069 554.474 444.069Z" fill="#F32626"/>
<path fill-rule="evenodd" clip-rule="evenodd" d="M554.474 406.236C555.931 406.236 557.044 406.635 557.044 407.092C557.044 407.549 555.931 407.949 554.474 407.949C553.018 407.949 551.904 407.549 551.904 407.092C551.904 406.635 553.018 406.236 554.474 406.236Z" fill="#F67C7C"/>
<path fill-rule="evenodd" clip-rule="evenodd" d="M582.808 160.793V288.869H577.667V160.793H582.808Z" fill="#FFD215"/>
<path fill-rule="evenodd" clip-rule="evenodd" d="M580.174 287.4C581.63 287.4 582.744 288.142 582.744 288.991C582.744 289.84 581.63 290.582 580.174 290.582C578.718 290.582 577.604 289.84 577.604 288.991C577.604 288.142 578.718 287.4 580.174 287.4Z" fill="#FFD215"/>
<path fill-rule="evenodd" clip-rule="evenodd" d="M595.658 260.598V271.429H590.518V260.598H595.658Z" fill="#FFD215"/>
<path fill-rule="evenodd" clip-rule="evenodd" d="M593.088 270.022C594.545 270.022 595.658 270.764 595.658 271.613C595.658 272.462 594.545 273.204 593.088 273.204C591.632 273.204 590.518 272.462 590.518 271.613C590.518 270.764 591.632 270.022 593.088 270.022Z" fill="#FFD215"/>
<path fill-rule="evenodd" clip-rule="evenodd" d="M593.088 259.741C594.545 259.741 595.658 260.141 595.658 260.598C595.658 261.055 594.545 261.455 593.088 261.455C591.632 261.455 590.518 261.055 590.518 260.598C590.518 260.141 591.632 259.741 593.088 259.741Z" fill="#FFEE50"/>
<path fill-rule="evenodd" clip-rule="evenodd" d="M557.107 109.82V120.651H551.967V109.82H557.107Z" fill="#FFD215"/>
<path fill-rule="evenodd" clip-rule="evenodd" d="M554.537 119.244C555.994 119.244 557.107 119.986 557.107 120.835C557.107 121.683 555.994 122.426 554.537 122.426C553.081 122.426 551.967 121.683 551.967 120.835C551.967 119.986 553.081 119.244 554.537 119.244Z" fill="#FFD215"/>
<path fill-rule="evenodd" clip-rule="evenodd" d="M554.537 108.964C555.994 108.964 557.107 109.363 557.107 109.82C557.107 110.277 555.994 110.677 554.537 110.677C553.081 110.677 551.967 110.277 551.967 109.82C551.967 109.363 553.081 108.964 554.537 108.964Z" fill="#FFEE50"/>
<path fill-rule="evenodd" clip-rule="evenodd" d="M557.108 396.507V385.676H551.968V396.507H551.985C551.973 396.567 551.967 396.628 551.967 396.69C551.967 397.539 553.081 398.281 554.537 398.281C555.994 398.281 557.107 397.539 557.107 396.69C557.107 396.628 557.102 396.567 557.09 396.507H557.108Z" fill="#17CE8A"/>
<path fill-rule="evenodd" clip-rule="evenodd" d="M595.659 205.77V243.534H590.519V205.77H595.659Z" fill="#F32626"/>
<path fill-rule="evenodd" clip-rule="evenodd" d="M593.089 204.913C594.545 204.913 595.659 205.313 595.659 205.77C595.659 206.227 594.545 206.626 593.089 206.626C591.632 206.626 590.519 206.227 590.519 205.77C590.519 205.313 591.632 204.913 593.089 204.913Z" fill="#F67C7C"/>
<path fill-rule="evenodd" clip-rule="evenodd" d="M554.537 384.819C555.994 384.819 557.107 385.219 557.107 385.675C557.107 386.132 555.994 386.532 554.537 386.532C553.081 386.532 551.967 386.132 551.967 385.675C551.967 385.219 553.081 384.819 554.537 384.819Z" fill="#42E7AA"/>
<path fill-rule="evenodd" clip-rule="evenodd" d="M595.659 398.526V409.357H590.519V398.526H595.659Z" fill="#2F80ED"/>
<path fill-rule="evenodd" clip-rule="evenodd" d="M593.089 407.95C594.545 407.95 595.659 408.692 595.659 409.541C595.659 410.389 594.545 411.132 593.089 411.132C591.632 411.132 590.519 410.389 590.519 409.541C590.519 408.692 591.632 407.95 593.089 407.95Z" fill="#2F80ED"/>
<path fill-rule="evenodd" clip-rule="evenodd" d="M593.089 397.67C594.545 397.67 595.659 398.069 595.659 398.526C595.659 398.983 594.545 399.383 593.089 399.383C591.632 399.383 590.519 398.983 590.519 398.526C590.519 398.069 591.632 397.67 593.089 397.67Z" fill="#47D2FF"/>
<path fill-rule="evenodd" clip-rule="evenodd" d="M595.658 144.088V154.919H590.518V144.088H595.658Z" fill="#2F80ED"/>
<path fill-rule="evenodd" clip-rule="evenodd" d="M593.088 153.511C594.545 153.511 595.658 154.253 595.658 155.102C595.658 155.951 594.545 156.693 593.088 156.693C591.632 156.693 590.518 155.951 590.518 155.102C590.518 154.253 591.632 153.511 593.088 153.511Z" fill="#2F80ED"/>
<path fill-rule="evenodd" clip-rule="evenodd" d="M593.088 143.231C594.545 143.231 595.658 143.631 595.658 144.088C595.658 144.545 594.545 144.945 593.088 144.945C591.632 144.945 590.518 144.545 590.518 144.088C590.518 143.631 591.632 143.231 593.088 143.231Z" fill="#47D2FF"/>
<path fill-rule="evenodd" clip-rule="evenodd" d="M595.659 420.8V440.198C593.651 440.198 592.526 440.198 590.519 440.198V420.8H595.659Z" fill="#FF5256"/>
<path fill-rule="evenodd" clip-rule="evenodd" d="M593.089 438.791C594.545 438.791 595.659 439.533 595.659 440.382C595.659 441.23 594.545 441.973 593.089 441.973C591.632 441.973 590.519 441.23 590.519 440.382C590.519 439.533 591.632 438.791 593.089 438.791Z" fill="#FF5256"/>
<path fill-rule="evenodd" clip-rule="evenodd" d="M593.089 419.943C594.545 419.943 595.659 420.343 595.659 420.8C595.659 421.257 594.545 421.657 593.089 421.657C591.632 421.657 590.519 421.257 590.519 420.8C590.519 420.343 591.632 419.943 593.089 419.943Z" fill="#F67C7C"/>
<path fill-rule="evenodd" clip-rule="evenodd" d="M582.808 132.95V139.498C580.801 139.498 579.675 139.498 577.668 139.498V132.95H582.808Z" fill="#FF5256"/>
<path fill-rule="evenodd" clip-rule="evenodd" d="M580.238 138.091C581.694 138.091 582.808 138.833 582.808 139.682C582.808 140.53 581.694 141.273 580.238 141.273C578.782 141.273 577.668 140.53 577.668 139.682C577.668 138.833 578.782 138.091 580.238 138.091Z" fill="#FF5256"/>
<path fill-rule="evenodd" clip-rule="evenodd" d="M580.238 132.094C581.694 132.094 582.808 132.494 582.808 132.951C582.808 133.407 581.694 133.807 580.238 133.807C578.782 133.807 577.668 133.407 577.668 132.951C577.668 132.494 578.782 132.094 580.238 132.094Z" fill="#F67C7C"/>
<path fill-rule="evenodd" clip-rule="evenodd" d="M582.809 300.006V310.837H577.668V300.006H582.809Z" fill="#2F80ED"/>
<path fill-rule="evenodd" clip-rule="evenodd" d="M580.239 309.429C581.695 309.429 582.809 310.172 582.809 311.02C582.809 311.869 581.695 312.611 580.239 312.611C578.782 312.611 577.668 311.869 577.668 311.02C577.668 310.172 578.782 309.429 580.239 309.429Z" fill="#2F80ED"/>
<path fill-rule="evenodd" clip-rule="evenodd" d="M580.239 299.149C581.695 299.149 582.809 299.549 582.809 300.006C582.809 300.463 581.695 300.863 580.239 300.863C578.782 300.863 577.668 300.463 577.668 300.006C577.668 299.549 578.782 299.149 580.239 299.149Z" fill="#47D2FF"/>
<path fill-rule="evenodd" clip-rule="evenodd" d="M580.238 159.937C581.694 159.937 582.808 160.337 582.808 160.793C582.808 161.25 581.694 161.65 580.238 161.65C578.782 161.65 577.668 161.25 577.668 160.793C577.668 160.337 578.782 159.937 580.238 159.937Z" fill="#FFEE50"/>
<path fill-rule="evenodd" clip-rule="evenodd" d="M569.895 116.674V219.477H564.755V116.674H569.895Z" fill="#3C8AFE"/>
<path fill-rule="evenodd" clip-rule="evenodd" d="M567.325 218.008C568.781 218.008 569.895 218.75 569.895 219.599C569.895 220.447 568.781 221.19 567.325 221.19C565.869 221.19 564.755 220.447 564.755 219.599C564.755 218.75 565.869 218.008 567.325 218.008Z" fill="#3C8AFE"/>
<path fill-rule="evenodd" clip-rule="evenodd" d="M567.325 115.817C568.781 115.817 569.895 116.217 569.895 116.674C569.895 117.131 568.781 117.531 567.325 117.531C565.869 117.531 564.755 117.131 564.755 116.674C564.755 116.217 565.869 115.817 567.325 115.817Z" fill="#06AFFF"/>
<path fill-rule="evenodd" clip-rule="evenodd" d="M557.044 258.884V307.716H551.904V258.884H557.044Z" fill="#3C8AFE"/>
<path fill-rule="evenodd" clip-rule="evenodd" d="M554.474 306.003C555.931 306.003 557.044 306.745 557.044 307.594C557.044 308.442 555.931 309.185 554.474 309.185C553.018 309.185 551.904 308.442 551.904 307.594C551.904 306.745 553.018 306.003 554.474 306.003Z" fill="#3C8AFE"/>
<path fill-rule="evenodd" clip-rule="evenodd" d="M554.474 258.028C555.931 258.028 557.044 258.427 557.044 258.884C557.044 259.341 555.931 259.741 554.474 259.741C553.018 259.741 551.904 259.341 551.904 258.884C551.904 258.427 553.018 258.028 554.474 258.028Z" fill="#06AFFF"/>
<path fill-rule="evenodd" clip-rule="evenodd" d="M569.895 238.324V267.452H564.755V238.324H569.895Z" fill="#17CE8A"/>
<path fill-rule="evenodd" clip-rule="evenodd" d="M567.325 265.738C568.781 265.738 569.895 266.481 569.895 267.329C569.895 268.178 568.781 268.92 567.325 268.92C565.869 268.92 564.755 268.178 564.755 267.329C564.755 266.481 565.869 265.738 567.325 265.738Z" fill="#17CE8A"/>
<path fill-rule="evenodd" clip-rule="evenodd" d="M567.325 237.467C568.781 237.467 569.895 237.867 569.895 238.324C569.895 238.781 568.781 239.181 567.325 239.181C565.869 239.181 564.755 238.781 564.755 238.324C564.755 237.867 565.869 237.467 567.325 237.467Z" fill="#42E7AA"/>
<path fill-rule="evenodd" clip-rule="evenodd" d="M595.595 170.645V193.776H590.455V170.645H595.595Z" fill="#17CE8A"/>
<path fill-rule="evenodd" clip-rule="evenodd" d="M593.025 192.063C594.482 192.063 595.595 192.805 595.595 193.654C595.595 194.502 594.482 195.245 593.025 195.245C591.569 195.245 590.455 194.502 590.455 193.654C590.455 192.805 591.569 192.063 593.025 192.063Z" fill="#17CE8A"/>
<path fill-rule="evenodd" clip-rule="evenodd" d="M593.025 169.789C594.482 169.789 595.595 170.189 595.595 170.646C595.595 171.102 594.482 171.502 593.025 171.502C591.569 171.502 590.455 171.102 590.455 170.646C590.455 170.189 591.569 169.789 593.025 169.789Z" fill="#42E7AA"/>
<path fill-rule="evenodd" clip-rule="evenodd" d="M595.595 284.585V311.571L590.455 314.569V284.585H595.595Z" fill="#17CE8A"/>
<path fill-rule="evenodd" clip-rule="evenodd" d="M593.025 283.729C594.482 283.729 595.595 284.128 595.595 284.585C595.595 285.042 594.482 285.442 593.025 285.442C591.569 285.442 590.455 285.042 590.455 284.585C590.455 284.128 591.569 283.729 593.025 283.729Z" fill="#42E7AA"/>
<path fill-rule="evenodd" clip-rule="evenodd" d="M569.895 292.296V325.825L564.755 322.823V292.296H569.895Z" fill="#F32626"/>
<path fill-rule="evenodd" clip-rule="evenodd" d="M567.325 291.439C568.781 291.439 569.895 291.839 569.895 292.296C569.895 292.752 568.781 293.152 567.325 293.152C565.869 293.152 564.755 292.752 564.755 292.296C564.755 291.839 565.869 291.439 567.325 291.439Z" fill="#F67C7C"/>
<path fill-rule="evenodd" clip-rule="evenodd" d="M557.044 143.231V229.757H551.904V143.231H557.044Z" fill="#F32626"/>
<path fill-rule="evenodd" clip-rule="evenodd" d="M554.474 229.04C555.931 229.04 557.044 229.407 557.044 229.827C557.044 230.246 555.931 230.613 554.474 230.613C553.018 230.613 551.904 230.246 551.904 229.827C551.904 229.407 553.018 229.04 554.474 229.04Z" fill="#F32626"/>
<path fill-rule="evenodd" clip-rule="evenodd" d="M554.474 142.375C555.931 142.375 557.044 142.774 557.044 143.231C557.044 143.688 555.931 144.088 554.474 144.088C553.018 144.088 551.904 143.688 551.904 143.231C551.904 142.774 553.018 142.375 554.474 142.375Z" fill="#F67C7C"/>
<path fill-rule="evenodd" clip-rule="evenodd" d="M187.155 353.033V419.269H181.784V353.033H187.155Z" fill="#FFD215"/>
<path fill-rule="evenodd" clip-rule="evenodd" d="M184.469 417.287C185.991 417.287 187.155 418.063 187.155 418.949C187.155 419.836 185.991 420.612 184.469 420.612C182.948 420.612 181.784 419.836 181.784 418.949C181.784 418.063 182.948 417.287 184.469 417.287Z" fill="#FFD215"/>
<path fill-rule="evenodd" clip-rule="evenodd" d="M173.729 353.928V404.948H168.358V353.928H173.729Z" fill="#3C8AFE"/>
<path fill-rule="evenodd" clip-rule="evenodd" d="M171.044 403.158C172.565 403.158 173.729 403.933 173.729 404.82C173.729 405.706 172.565 406.482 171.044 406.482C169.522 406.482 168.358 405.706 168.358 404.82C168.358 403.933 169.522 403.158 171.044 403.158Z" fill="#3C8AFE"/>
<path fill-rule="evenodd" clip-rule="evenodd" d="M171.044 353.033C172.565 353.033 173.729 353.45 173.729 353.928C173.729 354.405 172.565 354.823 171.044 354.823C169.522 354.823 168.358 354.405 168.358 353.928C168.358 353.45 169.522 353.033 171.044 353.033Z" fill="#06AFFF"/>
<path fill-rule="evenodd" clip-rule="evenodd" d="M200.582 337.816V368.249H195.211V337.816H200.582Z" fill="#17CE8A"/>
<path fill-rule="evenodd" clip-rule="evenodd" d="M197.897 366.459C199.418 366.459 200.582 367.234 200.582 368.121C200.582 369.008 199.418 369.783 197.897 369.783C196.375 369.783 195.211 369.008 195.211 368.121C195.211 367.234 196.375 366.459 197.897 366.459Z" fill="#17CE8A"/>
<path fill-rule="evenodd" clip-rule="evenodd" d="M27.0935 286.628L27.0935 271.177C27.0935 271.177 174.152 205.164 175.251 205.792L321.606 272.663V286.967C321.606 286.967 321.606 288.393 320.179 289.107L176.428 372.007C175.329 372.635 173.603 372.635 172.504 372.007L27.9567 288.747C26.858 288.119 27.0935 286.628 27.0935 286.628Z" fill="#405FCB"/>
<path fill-rule="evenodd" clip-rule="evenodd" d="M27.7858 270.166L172.655 187.911C173.754 187.283 175.48 187.283 176.579 187.911L320.874 271.593C321.972 272.221 321.972 273.241 320.874 273.869L177.834 356.079C176.736 356.707 175.009 356.707 173.911 356.079L27.8642 272.442C26.7656 271.814 26.6871 270.794 27.7858 270.166Z" fill="#4D73F8"/>
<path fill-rule="evenodd" clip-rule="evenodd" d="M114.979 269.667L173.179 235.972C173.613 235.71 174.307 235.71 174.827 235.972L233.375 269.93C233.809 270.193 233.809 270.63 233.375 270.893L175.261 304.5C174.827 304.763 174.134 304.763 173.613 304.5L114.979 270.543C114.545 270.28 114.545 269.93 114.979 269.667Z" fill="#405FCB"/>
<path fill-rule="evenodd" clip-rule="evenodd" d="M125.686 275.921C125.686 275.921 172.444 248.948 172.833 248.754C173.223 248.561 173.906 248.561 174.295 248.754C174.685 248.948 222.959 276.055 222.959 276.055C223.348 276.248 223.348 276.635 222.959 276.926L175.071 304.698C174.681 304.891 173.835 304.891 173.445 304.698L125.686 276.793C125.296 276.502 125.296 276.115 125.686 275.921Z" fill="#F9F9FE"/>
<path fill-rule="evenodd" clip-rule="evenodd" d="M160.302 389.731V429.188H154.932V389.731H160.302Z" fill="#F32626"/>
<path fill-rule="evenodd" clip-rule="evenodd" d="M157.617 428.366C159.139 428.366 160.302 428.75 160.302 429.188C160.302 429.626 159.139 430.01 157.617 430.01C156.095 430.01 154.932 429.626 154.932 429.188C154.932 428.75 156.095 428.366 157.617 428.366Z" fill="#F32626"/>
<path fill-rule="evenodd" clip-rule="evenodd" d="M157.617 388.836C159.139 388.836 160.302 389.254 160.302 389.731C160.302 390.209 159.139 390.626 157.617 390.626C156.095 390.626 154.932 390.209 154.932 389.731C154.932 389.254 156.095 388.836 157.617 388.836Z" fill="#F67C7C"/>
<path fill-rule="evenodd" clip-rule="evenodd" d="M187.221 132.393V266.209H181.85V132.393H187.221Z" fill="#FFD215"/>
<path fill-rule="evenodd" clip-rule="evenodd" d="M184.469 264.674C185.991 264.674 187.155 265.45 187.155 266.337C187.155 267.223 185.991 267.999 184.469 267.999C182.948 267.999 181.784 267.223 181.784 266.337C181.784 265.45 182.948 264.674 184.469 264.674Z" fill="#FFD215"/>
<path fill-rule="evenodd" clip-rule="evenodd" d="M200.647 236.671V247.987H195.276V236.671H200.647Z" fill="#FFD215"/>
<path fill-rule="evenodd" clip-rule="evenodd" d="M197.962 246.517C199.483 246.517 200.647 247.293 200.647 248.179C200.647 249.066 199.483 249.842 197.962 249.842C196.44 249.842 195.276 249.066 195.276 248.179C195.276 247.293 196.44 246.517 197.962 246.517Z" fill="#FFD215"/>
<path fill-rule="evenodd" clip-rule="evenodd" d="M197.962 235.775C199.483 235.775 200.647 236.193 200.647 236.67C200.647 237.148 199.483 237.566 197.962 237.566C196.44 237.566 195.276 237.148 195.276 236.67C195.276 236.193 196.44 235.775 197.962 235.775Z" fill="#FFEE50"/>
<path fill-rule="evenodd" clip-rule="evenodd" d="M160.368 79.1345V90.451H154.997V79.1345H160.368Z" fill="#FFD215"/>
<path fill-rule="evenodd" clip-rule="evenodd" d="M157.682 88.9803C159.204 88.9803 160.368 89.7561 160.368 90.6427C160.368 91.5292 159.204 92.305 157.682 92.305C156.161 92.305 154.997 91.5292 154.997 90.6427C154.997 89.7561 156.161 88.9803 157.682 88.9803Z" fill="#FFD215"/>
<path fill-rule="evenodd" clip-rule="evenodd" d="M157.682 78.2395C159.204 78.2395 160.368 78.6572 160.368 79.1346C160.368 79.612 159.204 80.0297 157.682 80.0297C156.161 80.0297 154.997 79.612 154.997 79.1346C154.997 78.6572 156.161 78.2395 157.682 78.2395Z" fill="#FFEE50"/>
<path fill-rule="evenodd" clip-rule="evenodd" d="M160.368 378.67V367.354H154.997V378.67H155.015C155.003 378.734 154.997 378.798 154.997 378.862C154.997 379.749 156.161 380.524 157.682 380.524C159.204 380.524 160.368 379.749 160.368 378.862C160.368 378.798 160.361 378.734 160.349 378.67H160.368Z" fill="#17CE8A"/>
<path fill-rule="evenodd" clip-rule="evenodd" d="M200.647 179.385V218.842H195.276V179.385H200.647Z" fill="#F32626"/>
<path fill-rule="evenodd" clip-rule="evenodd" d="M197.962 178.49C199.483 178.49 200.647 178.907 200.647 179.385C200.647 179.862 199.483 180.28 197.962 180.28C196.44 180.28 195.276 179.862 195.276 179.385C195.276 178.907 196.44 178.49 197.962 178.49Z" fill="#F67C7C"/>
<path fill-rule="evenodd" clip-rule="evenodd" d="M157.682 366.459C159.204 366.459 160.368 366.876 160.368 367.354C160.368 367.831 159.204 368.249 157.682 368.249C156.161 368.249 154.997 367.831 154.997 367.354C154.997 366.876 156.161 366.459 157.682 366.459Z" fill="#42E7AA"/>
<path fill-rule="evenodd" clip-rule="evenodd" d="M200.647 380.78V392.097H195.276V380.78H200.647Z" fill="#2F80ED"/>
<path fill-rule="evenodd" clip-rule="evenodd" d="M197.962 390.627C199.483 390.627 200.647 391.402 200.647 392.289C200.647 393.175 199.483 393.951 197.962 393.951C196.44 393.951 195.276 393.175 195.276 392.289C195.276 391.402 196.44 390.627 197.962 390.627Z" fill="#2F80ED"/>
<path fill-rule="evenodd" clip-rule="evenodd" d="M197.962 379.885C199.483 379.885 200.647 380.303 200.647 380.78C200.647 381.258 199.483 381.676 197.962 381.676C196.44 381.676 195.276 381.258 195.276 380.78C195.276 380.303 196.44 379.885 197.962 379.885Z" fill="#47D2FF"/>
<path fill-rule="evenodd" clip-rule="evenodd" d="M200.647 114.938V126.255H195.276V114.938H200.647Z" fill="#2F80ED"/>
<path fill-rule="evenodd" clip-rule="evenodd" d="M197.962 124.784C199.483 124.784 200.647 125.56 200.647 126.446C200.647 127.333 199.483 128.109 197.962 128.109C196.44 128.109 195.276 127.333 195.276 126.446C195.276 125.56 196.44 124.784 197.962 124.784Z" fill="#2F80ED"/>
<path fill-rule="evenodd" clip-rule="evenodd" d="M197.962 114.043C199.483 114.043 200.647 114.461 200.647 114.938C200.647 115.416 199.483 115.833 197.962 115.833C196.44 115.833 195.276 115.416 195.276 114.938C195.276 114.461 196.44 114.043 197.962 114.043Z" fill="#47D2FF"/>
<path fill-rule="evenodd" clip-rule="evenodd" d="M200.647 404.053V424.32C198.55 424.32 197.374 424.32 195.276 424.32V404.053H200.647Z" fill="#FF5256"/>
<path fill-rule="evenodd" clip-rule="evenodd" d="M197.962 422.85C199.483 422.85 200.647 423.626 200.647 424.512C200.647 425.399 199.483 426.174 197.962 426.174C196.44 426.174 195.276 425.399 195.276 424.512C195.276 423.626 196.44 422.85 197.962 422.85Z" fill="#FF5256"/>
<path fill-rule="evenodd" clip-rule="evenodd" d="M197.962 403.158C199.483 403.158 200.647 403.575 200.647 404.053C200.647 404.53 199.483 404.948 197.962 404.948C196.44 404.948 195.276 404.53 195.276 404.053C195.276 403.575 196.44 403.158 197.962 403.158Z" fill="#F67C7C"/>
<path fill-rule="evenodd" clip-rule="evenodd" d="M187.22 103.302V110.143C185.123 110.143 183.947 110.143 181.85 110.143V103.302H187.22Z" fill="#FF5256"/>
<path fill-rule="evenodd" clip-rule="evenodd" d="M184.535 108.672C186.057 108.672 187.22 109.448 187.22 110.335C187.22 111.221 186.057 111.997 184.535 111.997C183.013 111.997 181.85 111.221 181.85 110.335C181.85 109.448 183.013 108.672 184.535 108.672Z" fill="#FF5256"/>
<path fill-rule="evenodd" clip-rule="evenodd" d="M184.535 102.407C186.057 102.407 187.22 102.824 187.22 103.302C187.22 103.779 186.057 104.197 184.535 104.197C183.013 104.197 181.85 103.779 181.85 103.302C181.85 102.824 183.013 102.407 184.535 102.407Z" fill="#F67C7C"/>
<path fill-rule="evenodd" clip-rule="evenodd" d="M187.22 277.845V289.161H181.85V277.845H187.22Z" fill="#2F80ED"/>
<path fill-rule="evenodd" clip-rule="evenodd" d="M184.535 287.691C186.057 287.691 187.22 288.467 187.22 289.353C187.22 290.24 186.057 291.016 184.535 291.016C183.013 291.016 181.85 290.24 181.85 289.353C181.85 288.467 183.013 287.691 184.535 287.691Z" fill="#2F80ED"/>
<path fill-rule="evenodd" clip-rule="evenodd" d="M184.535 276.95C186.057 276.95 187.22 277.367 187.22 277.845C187.22 278.322 186.057 278.74 184.535 278.74C183.013 278.74 181.85 278.322 181.85 277.845C181.85 277.367 183.013 276.95 184.535 276.95Z" fill="#47D2FF"/>
<path fill-rule="evenodd" clip-rule="evenodd" d="M184.535 131.497C186.057 131.497 187.221 131.915 187.221 132.392C187.221 132.87 186.057 133.287 184.535 133.287C183.014 133.287 181.85 132.87 181.85 132.392C181.85 131.915 183.014 131.497 184.535 131.497Z" fill="#FFEE50"/>
<path fill-rule="evenodd" clip-rule="evenodd" d="M173.729 86.295V193.706H168.358V86.295H173.729Z" fill="#3C8AFE"/>
<path fill-rule="evenodd" clip-rule="evenodd" d="M171.044 192.172C172.565 192.172 173.729 192.947 173.729 193.834C173.729 194.72 172.565 195.496 171.044 195.496C169.522 195.496 168.358 194.72 168.358 193.834C168.358 192.947 169.522 192.172 171.044 192.172Z" fill="#3C8AFE"/>
<path fill-rule="evenodd" clip-rule="evenodd" d="M171.044 85.4C172.565 85.4 173.729 85.8177 173.729 86.2951C173.729 86.7725 172.565 87.1902 171.044 87.1902C169.522 87.1902 168.358 86.7725 168.358 86.2951C168.358 85.8177 169.522 85.4 171.044 85.4Z" fill="#06AFFF"/>
<path fill-rule="evenodd" clip-rule="evenodd" d="M160.302 234.88V285.9H154.932V234.88H160.302Z" fill="#3C8AFE"/>
<path fill-rule="evenodd" clip-rule="evenodd" d="M157.617 284.11C159.139 284.11 160.302 284.886 160.302 285.773C160.302 286.659 159.139 287.435 157.617 287.435C156.095 287.435 154.932 286.659 154.932 285.773C154.932 284.886 156.095 284.11 157.617 284.11Z" fill="#3C8AFE"/>
<path fill-rule="evenodd" clip-rule="evenodd" d="M157.617 233.985C159.139 233.985 160.302 234.403 160.302 234.88C160.302 235.358 159.139 235.776 157.617 235.776C156.095 235.776 154.932 235.358 154.932 234.88C154.932 234.403 156.095 233.985 157.617 233.985Z" fill="#06AFFF"/>
<path fill-rule="evenodd" clip-rule="evenodd" d="M173.729 213.398V243.831H168.358V213.398H173.729Z" fill="#17CE8A"/>
<path fill-rule="evenodd" clip-rule="evenodd" d="M171.044 242.042C172.565 242.042 173.729 242.817 173.729 243.704C173.729 244.59 172.565 245.366 171.044 245.366C169.522 245.366 168.358 244.59 168.358 243.704C168.358 242.817 169.522 242.042 171.044 242.042Z" fill="#17CE8A"/>
<path fill-rule="evenodd" clip-rule="evenodd" d="M171.044 212.503C172.565 212.503 173.729 212.921 173.729 213.398C173.729 213.876 172.565 214.293 171.044 214.293C169.522 214.293 168.358 213.876 168.358 213.398C168.358 212.921 169.522 212.503 171.044 212.503Z" fill="#42E7AA"/>
<path fill-rule="evenodd" clip-rule="evenodd" d="M200.582 142.686V166.853H195.211V142.686H200.582Z" fill="#17CE8A"/>
<path fill-rule="evenodd" clip-rule="evenodd" d="M197.897 165.063C199.418 165.063 200.582 165.839 200.582 166.726C200.582 167.612 199.418 168.388 197.897 168.388C196.375 168.388 195.211 167.612 195.211 166.726C195.211 165.839 196.375 165.063 197.897 165.063Z" fill="#17CE8A"/>
<path fill-rule="evenodd" clip-rule="evenodd" d="M197.897 141.791C199.418 141.791 200.582 142.209 200.582 142.686C200.582 143.164 199.418 143.581 197.897 143.581C196.375 143.581 195.211 143.164 195.211 142.686C195.211 142.209 196.375 141.791 197.897 141.791Z" fill="#42E7AA"/>
<path fill-rule="evenodd" clip-rule="evenodd" d="M200.582 261.733V289.928L195.211 293.061V261.733H200.582Z" fill="#17CE8A"/>
<path fill-rule="evenodd" clip-rule="evenodd" d="M197.897 260.838C199.418 260.838 200.582 261.256 200.582 261.733C200.582 262.21 199.418 262.628 197.897 262.628C196.375 262.628 195.211 262.21 195.211 261.733C195.211 261.256 196.375 260.838 197.897 260.838Z" fill="#42E7AA"/>
<path fill-rule="evenodd" clip-rule="evenodd" d="M173.729 269.789V304.822L168.358 301.685V269.789H173.729Z" fill="#F32626"/>
<path fill-rule="evenodd" clip-rule="evenodd" d="M171.044 268.894C172.565 268.894 173.729 269.312 173.729 269.789C173.729 270.267 172.565 270.684 171.044 270.684C169.522 270.684 168.358 270.267 168.358 269.789C168.358 269.312 169.522 268.894 171.044 268.894Z" fill="#F67C7C"/>
<path fill-rule="evenodd" clip-rule="evenodd" d="M160.302 114.043V204.447H154.932V114.043H160.302Z" fill="#F32626"/>
<path fill-rule="evenodd" clip-rule="evenodd" d="M157.617 203.698C159.139 203.698 160.302 204.082 160.302 204.52C160.302 204.959 159.139 205.342 157.617 205.342C156.095 205.342 154.932 204.959 154.932 204.52C154.932 204.082 156.095 203.698 157.617 203.698Z" fill="#F32626"/>
<path fill-rule="evenodd" clip-rule="evenodd" d="M157.617 113.148C159.139 113.148 160.302 113.566 160.302 114.043C160.302 114.52 159.139 114.938 157.617 114.938C156.095 114.938 154.932 114.52 154.932 114.043C154.932 113.566 156.095 113.148 157.617 113.148Z" fill="#F67C7C"/>
<path fill-rule="evenodd" clip-rule="evenodd" d="M410.868 241.331V292.03H406.757V241.331H410.868Z" fill="#FFD215"/>
<path fill-rule="evenodd" clip-rule="evenodd" d="M408.813 290.513C409.977 290.513 410.868 291.107 410.868 291.785C410.868 292.464 409.977 293.058 408.813 293.058C407.648 293.058 406.757 292.464 406.757 291.785C406.757 291.107 407.648 290.513 408.813 290.513Z" fill="#FFD215"/>
<path fill-rule="evenodd" clip-rule="evenodd" d="M400.593 242.016V281.068H396.482V242.016H400.593Z" fill="#3C8AFE"/>
<path fill-rule="evenodd" clip-rule="evenodd" d="M398.537 279.698C399.702 279.698 400.593 280.292 400.593 280.97C400.593 281.649 399.702 282.242 398.537 282.242C397.373 282.242 396.482 281.649 396.482 280.97C396.482 280.292 397.373 279.698 398.537 279.698Z" fill="#3C8AFE"/>
<path fill-rule="evenodd" clip-rule="evenodd" d="M398.537 241.331C399.702 241.331 400.593 241.651 400.593 242.017C400.593 242.382 399.702 242.702 398.537 242.702C397.373 242.702 396.482 242.382 396.482 242.017C396.482 241.651 397.373 241.331 398.537 241.331Z" fill="#06AFFF"/>
<path fill-rule="evenodd" clip-rule="evenodd" d="M421.146 229.684V252.978H417.035V229.684H421.146Z" fill="#17CE8A"/>
<path fill-rule="evenodd" clip-rule="evenodd" d="M419.091 251.608C420.255 251.608 421.146 252.202 421.146 252.88C421.146 253.559 420.255 254.153 419.091 254.153C417.926 254.153 417.035 253.559 417.035 252.88C417.035 252.202 417.926 251.608 419.091 251.608Z" fill="#17CE8A"/>
<path fill-rule="evenodd" clip-rule="evenodd" d="M288.355 190.504L288.355 178.678C288.355 178.678 400.916 128.15 401.757 128.631L513.78 179.816V190.764C513.78 190.764 513.78 191.856 512.688 192.401L402.658 255.855C401.817 256.335 400.496 256.335 399.655 255.855L289.016 192.126C288.175 191.646 288.355 190.504 288.355 190.504Z" fill="#405FCB"/>
<path fill-rule="evenodd" clip-rule="evenodd" d="M288.885 177.904L399.77 114.945C400.611 114.464 401.933 114.464 402.774 114.945L513.219 178.996C514.06 179.477 514.06 180.258 513.219 180.738L403.735 243.664C402.894 244.144 401.572 244.144 400.731 243.664L288.945 179.646C288.104 179.166 288.044 178.385 288.885 177.904Z" fill="#4D73F8"/>
<path fill-rule="evenodd" clip-rule="evenodd" d="M355.623 177.522L400.171 151.732C400.503 151.531 401.035 151.531 401.433 151.732L446.246 177.723C446.578 177.924 446.578 178.259 446.246 178.46L401.765 204.184C401.433 204.385 400.902 204.385 400.503 204.184L355.623 178.192C355.292 177.991 355.292 177.723 355.623 177.522Z" fill="#405FCB"/>
<path fill-rule="evenodd" clip-rule="evenodd" d="M363.82 182.309C363.82 182.309 399.609 161.663 399.907 161.515C400.205 161.367 400.728 161.367 401.026 161.515C401.324 161.663 438.274 182.411 438.274 182.411C438.572 182.559 438.572 182.856 438.274 183.078L401.62 204.335C401.321 204.483 400.674 204.483 400.375 204.335L363.82 182.976C363.521 182.754 363.521 182.457 363.82 182.309Z" fill="#F9F9FE"/>
<path fill-rule="evenodd" clip-rule="evenodd" d="M390.315 269.421V299.622H386.205V269.421H390.315Z" fill="#F32626"/>
<path fill-rule="evenodd" clip-rule="evenodd" d="M388.26 298.993C389.425 298.993 390.315 299.286 390.315 299.622C390.315 299.958 389.425 300.251 388.26 300.251C387.095 300.251 386.205 299.958 386.205 299.622C386.205 299.286 387.095 298.993 388.26 298.993Z" fill="#F32626"/>
<path fill-rule="evenodd" clip-rule="evenodd" d="M388.26 268.736C389.425 268.736 390.315 269.056 390.315 269.421C390.315 269.787 389.425 270.107 388.26 270.107C387.095 270.107 386.205 269.787 386.205 269.421C386.205 269.056 387.095 268.736 388.26 268.736Z" fill="#F67C7C"/>
<path fill-rule="evenodd" clip-rule="evenodd" d="M410.919 72.4497V174.875H406.808V72.4497H410.919Z" fill="#FFD215"/>
<path fill-rule="evenodd" clip-rule="evenodd" d="M408.813 173.701C409.977 173.701 410.868 174.294 410.868 174.973C410.868 175.652 409.977 176.245 408.813 176.245C407.648 176.245 406.757 175.652 406.757 174.973C406.757 174.294 407.648 173.701 408.813 173.701Z" fill="#FFD215"/>
<path fill-rule="evenodd" clip-rule="evenodd" d="M421.196 152.266V160.928H417.085V152.266H421.196Z" fill="#FFD215"/>
<path fill-rule="evenodd" clip-rule="evenodd" d="M419.14 159.802C420.305 159.802 421.196 160.396 421.196 161.075C421.196 161.753 420.305 162.347 419.14 162.347C417.976 162.347 417.085 161.753 417.085 161.075C417.085 160.396 417.976 159.802 419.14 159.802Z" fill="#FFD215"/>
<path fill-rule="evenodd" clip-rule="evenodd" d="M419.14 151.581C420.305 151.581 421.196 151.901 421.196 152.266C421.196 152.631 420.305 152.951 419.14 152.951C417.976 152.951 417.085 152.631 417.085 152.266C417.085 151.901 417.976 151.581 419.14 151.581Z" fill="#FFEE50"/>
<path fill-rule="evenodd" clip-rule="evenodd" d="M390.365 31.6849V40.3468H386.254V31.6849H390.365Z" fill="#FFD215"/>
<path fill-rule="evenodd" clip-rule="evenodd" d="M388.31 39.2212C389.474 39.2212 390.365 39.815 390.365 40.4936C390.365 41.1721 389.474 41.7659 388.31 41.7659C387.145 41.7659 386.254 41.1721 386.254 40.4936C386.254 39.815 387.145 39.2212 388.31 39.2212Z" fill="#FFD215"/>
<path fill-rule="evenodd" clip-rule="evenodd" d="M388.31 31C389.474 31 390.365 31.3197 390.365 31.6851C390.365 32.0505 389.474 32.3702 388.31 32.3702C387.145 32.3702 386.254 32.0505 386.254 31.6851C386.254 31.3197 387.145 31 388.31 31Z" fill="#FFEE50"/>
<path fill-rule="evenodd" clip-rule="evenodd" d="M390.365 260.955V252.293H386.254V260.955H386.268C386.259 261.003 386.254 261.052 386.254 261.102C386.254 261.78 387.145 262.374 388.31 262.374C389.475 262.374 390.365 261.78 390.365 261.102C390.365 261.052 390.36 261.003 390.351 260.955H390.365Z" fill="#17CE8A"/>
<path fill-rule="evenodd" clip-rule="evenodd" d="M421.196 108.418V138.619H417.085V108.418H421.196Z" fill="#F32626"/>
<path fill-rule="evenodd" clip-rule="evenodd" d="M419.14 107.733C420.305 107.733 421.196 108.053 421.196 108.418C421.196 108.784 420.305 109.104 419.14 109.104C417.976 109.104 417.085 108.784 417.085 108.418C417.085 108.053 417.976 107.733 419.14 107.733Z" fill="#F67C7C"/>
<path fill-rule="evenodd" clip-rule="evenodd" d="M388.31 251.608C389.474 251.608 390.365 251.928 390.365 252.293C390.365 252.658 389.474 252.978 388.31 252.978C387.145 252.978 386.254 252.658 386.254 252.293C386.254 251.928 387.145 251.608 388.31 251.608Z" fill="#42E7AA"/>
<path fill-rule="evenodd" clip-rule="evenodd" d="M421.196 262.57V271.232H417.085V262.57H421.196Z" fill="#2F80ED"/>
<path fill-rule="evenodd" clip-rule="evenodd" d="M419.14 270.106C420.305 270.106 421.196 270.7 421.196 271.379C421.196 272.057 420.305 272.651 419.14 272.651C417.976 272.651 417.085 272.057 417.085 271.379C417.085 270.7 417.976 270.106 419.14 270.106Z" fill="#2F80ED"/>
<path fill-rule="evenodd" clip-rule="evenodd" d="M419.14 261.885C420.305 261.885 421.196 262.205 421.196 262.57C421.196 262.936 420.305 263.255 419.14 263.255C417.976 263.255 417.085 262.936 417.085 262.57C417.085 262.205 417.976 261.885 419.14 261.885Z" fill="#47D2FF"/>
<path fill-rule="evenodd" clip-rule="evenodd" d="M421.196 59.0896V67.7515H417.085V59.0896H421.196Z" fill="#2F80ED"/>
<path fill-rule="evenodd" clip-rule="evenodd" d="M419.14 66.6257C420.305 66.6257 421.196 67.2195 421.196 67.8981C421.196 68.5767 420.305 69.1705 419.14 69.1705C417.976 69.1705 417.085 68.5767 417.085 67.8981C417.085 67.2195 417.976 66.6257 419.14 66.6257Z" fill="#2F80ED"/>
<path fill-rule="evenodd" clip-rule="evenodd" d="M419.14 58.4048C420.305 58.4048 421.196 58.7245 421.196 59.0899C421.196 59.4553 420.305 59.775 419.14 59.775C417.976 59.775 417.085 59.4553 417.085 59.0899C417.085 58.7245 417.976 58.4048 419.14 58.4048Z" fill="#47D2FF"/>
<path fill-rule="evenodd" clip-rule="evenodd" d="M421.196 280.383V295.896C419.59 295.896 418.69 295.896 417.085 295.896V280.383H421.196Z" fill="#FF5256"/>
<path fill-rule="evenodd" clip-rule="evenodd" d="M419.14 294.771C420.305 294.771 421.196 295.365 421.196 296.043C421.196 296.722 420.305 297.315 419.14 297.315C417.976 297.315 417.085 296.722 417.085 296.043C417.085 295.365 417.976 294.771 419.14 294.771Z" fill="#FF5256"/>
<path fill-rule="evenodd" clip-rule="evenodd" d="M419.14 279.698C420.305 279.698 421.196 280.018 421.196 280.383C421.196 280.748 420.305 281.068 419.14 281.068C417.976 281.068 417.085 280.748 417.085 280.383C417.085 280.018 417.976 279.698 419.14 279.698Z" fill="#F67C7C"/>
<path fill-rule="evenodd" clip-rule="evenodd" d="M410.919 50.183V55.4192C409.313 55.4192 408.413 55.4192 406.808 55.4192V50.183H410.919Z" fill="#FF5256"/>
<path fill-rule="evenodd" clip-rule="evenodd" d="M408.863 54.2936C410.028 54.2936 410.919 54.8873 410.919 55.5659C410.919 56.2445 410.028 56.8383 408.863 56.8383C407.699 56.8383 406.808 56.2445 406.808 55.5659C406.808 54.8873 407.699 54.2936 408.863 54.2936Z" fill="#FF5256"/>
<path fill-rule="evenodd" clip-rule="evenodd" d="M408.863 49.498C410.028 49.498 410.919 49.8178 410.919 50.1832C410.919 50.5486 410.028 50.8683 408.863 50.8683C407.699 50.8683 406.808 50.5486 406.808 50.1832C406.808 49.8178 407.699 49.498 408.863 49.498Z" fill="#F67C7C"/>
<path fill-rule="evenodd" clip-rule="evenodd" d="M410.919 183.781V192.443H406.808V183.781H410.919Z" fill="#2F80ED"/>
<path fill-rule="evenodd" clip-rule="evenodd" d="M408.863 191.317C410.028 191.317 410.919 191.911 410.919 192.59C410.919 193.268 410.028 193.862 408.863 193.862C407.699 193.862 406.808 193.268 406.808 192.59C406.808 191.911 407.699 191.317 408.863 191.317Z" fill="#2F80ED"/>
<path fill-rule="evenodd" clip-rule="evenodd" d="M408.863 183.096C410.028 183.096 410.919 183.416 410.919 183.781C410.919 184.147 410.028 184.466 408.863 184.466C407.699 184.466 406.808 184.147 406.808 183.781C406.808 183.416 407.699 183.096 408.863 183.096Z" fill="#47D2FF"/>
<path fill-rule="evenodd" clip-rule="evenodd" d="M408.864 71.7644C410.029 71.7644 410.919 72.0841 410.919 72.4495C410.919 72.8149 410.029 73.1346 408.864 73.1346C407.699 73.1346 406.809 72.8149 406.809 72.4495C406.809 72.0841 407.699 71.7644 408.864 71.7644Z" fill="#FFEE50"/>
<path fill-rule="evenodd" clip-rule="evenodd" d="M400.593 37.1659V119.38H396.482V37.1659H400.593Z" fill="#3C8AFE"/>
<path fill-rule="evenodd" clip-rule="evenodd" d="M398.537 118.206C399.702 118.206 400.593 118.799 400.593 119.478C400.593 120.157 399.702 120.75 398.537 120.75C397.373 120.75 396.482 120.157 396.482 119.478C396.482 118.799 397.373 118.206 398.537 118.206Z" fill="#3C8AFE"/>
<path fill-rule="evenodd" clip-rule="evenodd" d="M398.537 36.4806C399.702 36.4806 400.593 36.8003 400.593 37.1657C400.593 37.5311 399.702 37.8508 398.537 37.8508C397.373 37.8508 396.482 37.5311 396.482 37.1657C396.482 36.8003 397.373 36.4806 398.537 36.4806Z" fill="#06AFFF"/>
<path fill-rule="evenodd" clip-rule="evenodd" d="M390.315 150.895V189.947H386.205V150.895H390.315Z" fill="#3C8AFE"/>
<path fill-rule="evenodd" clip-rule="evenodd" d="M388.26 188.577C389.425 188.577 390.315 189.171 390.315 189.849C390.315 190.528 389.425 191.122 388.26 191.122C387.095 191.122 386.205 190.528 386.205 189.849C386.205 189.171 387.095 188.577 388.26 188.577Z" fill="#3C8AFE"/>
<path fill-rule="evenodd" clip-rule="evenodd" d="M388.26 150.21C389.425 150.21 390.315 150.53 390.315 150.896C390.315 151.261 389.425 151.581 388.26 151.581C387.095 151.581 386.205 151.261 386.205 150.896C386.205 150.53 387.095 150.21 388.26 150.21Z" fill="#06AFFF"/>
<path fill-rule="evenodd" clip-rule="evenodd" d="M400.593 134.453V157.747H396.482V134.453H400.593Z" fill="#17CE8A"/>
<path fill-rule="evenodd" clip-rule="evenodd" d="M398.537 156.377C399.702 156.377 400.593 156.971 400.593 157.65C400.593 158.328 399.702 158.922 398.537 158.922C397.373 158.922 396.482 158.328 396.482 157.65C396.482 156.971 397.373 156.377 398.537 156.377Z" fill="#17CE8A"/>
<path fill-rule="evenodd" clip-rule="evenodd" d="M398.537 133.768C399.702 133.768 400.593 134.088 400.593 134.453C400.593 134.818 399.702 135.138 398.537 135.138C397.373 135.138 396.482 134.818 396.482 134.453C396.482 134.088 397.373 133.768 398.537 133.768Z" fill="#42E7AA"/>
<path fill-rule="evenodd" clip-rule="evenodd" d="M421.146 80.3285V98.8267H417.035V80.3285H421.146Z" fill="#17CE8A"/>
<path fill-rule="evenodd" clip-rule="evenodd" d="M419.091 97.4564C420.255 97.4564 421.146 98.0502 421.146 98.7288C421.146 99.4074 420.255 100.001 419.091 100.001C417.926 100.001 417.035 99.4074 417.035 98.7288C417.035 98.0502 417.926 97.4564 419.091 97.4564Z" fill="#17CE8A"/>
<path fill-rule="evenodd" clip-rule="evenodd" d="M419.091 79.6436C420.255 79.6436 421.146 79.9633 421.146 80.3287C421.146 80.6941 420.255 81.0138 419.091 81.0138C417.926 81.0138 417.035 80.6941 417.035 80.3287C417.035 79.9633 417.926 79.6436 419.091 79.6436Z" fill="#42E7AA"/>
<path fill-rule="evenodd" clip-rule="evenodd" d="M421.146 171.449V193.03L417.035 195.428V171.449H421.146Z" fill="#17CE8A"/>
<path fill-rule="evenodd" clip-rule="evenodd" d="M419.091 170.764C420.255 170.764 421.146 171.084 421.146 171.449C421.146 171.815 420.255 172.134 419.091 172.134C417.926 172.134 417.035 171.815 417.035 171.449C417.035 171.084 417.926 170.764 419.091 170.764Z" fill="#42E7AA"/>
<path fill-rule="evenodd" clip-rule="evenodd" d="M400.593 177.615V204.43L396.482 202.029V177.615H400.593Z" fill="#F32626"/>
<path fill-rule="evenodd" clip-rule="evenodd" d="M398.537 176.93C399.702 176.93 400.593 177.25 400.593 177.615C400.593 177.981 399.702 178.301 398.537 178.301C397.373 178.301 396.482 177.981 396.482 177.615C396.482 177.25 397.373 176.93 398.537 176.93Z" fill="#F67C7C"/>
<path fill-rule="evenodd" clip-rule="evenodd" d="M390.315 58.4045V127.602H386.205V58.4045H390.315Z" fill="#F32626"/>
<path fill-rule="evenodd" clip-rule="evenodd" d="M388.26 127.028C389.425 127.028 390.315 127.322 390.315 127.657C390.315 127.993 389.425 128.286 388.26 128.286C387.095 128.286 386.205 127.993 386.205 127.657C386.205 127.322 387.095 127.028 388.26 127.028Z" fill="#F32626"/>
<path fill-rule="evenodd" clip-rule="evenodd" d="M388.26 57.7195C389.425 57.7195 390.315 58.0392 390.315 58.4046C390.315 58.77 389.425 59.0897 388.26 59.0897C387.095 59.0897 386.205 58.77 386.205 58.4046C386.205 58.0392 387.095 57.7195 388.26 57.7195Z" fill="#F67C7C"/>
<path fill-rule="evenodd" clip-rule="evenodd" d="M389.111 591.621V691.709H380.996V591.621H389.111Z" fill="#FFD215"/>
<path fill-rule="evenodd" clip-rule="evenodd" d="M385.054 688.713C387.353 688.713 389.111 689.886 389.111 691.225C389.111 692.565 387.353 693.737 385.054 693.737C382.754 693.737 380.996 692.565 380.996 691.225C380.996 689.886 382.754 688.713 385.054 688.713Z" fill="#FFD215"/>
<path fill-rule="evenodd" clip-rule="evenodd" d="M368.823 592.973V670.068H360.708V592.973H368.823Z" fill="#3C8AFE"/>
<path fill-rule="evenodd" clip-rule="evenodd" d="M364.766 667.363C367.065 667.363 368.823 668.535 368.823 669.874C368.823 671.214 367.065 672.386 364.766 672.386C362.466 672.386 360.708 671.214 360.708 669.874C360.708 668.535 362.466 667.363 364.766 667.363Z" fill="#3C8AFE"/>
<path fill-rule="evenodd" clip-rule="evenodd" d="M364.766 591.621C367.065 591.621 368.823 592.252 368.823 592.973C368.823 593.695 367.065 594.326 364.766 594.326C362.466 594.326 360.708 593.695 360.708 592.973C360.708 592.252 362.466 591.621 364.766 591.621Z" fill="#06AFFF"/>
<path fill-rule="evenodd" clip-rule="evenodd" d="M409.399 568.627V614.614H401.284V568.627H409.399Z" fill="#17CE8A"/>
<path fill-rule="evenodd" clip-rule="evenodd" d="M405.341 611.908C407.641 611.908 409.399 613.081 409.399 614.42C409.399 615.76 407.641 616.932 405.341 616.932C403.042 616.932 401.284 615.76 401.284 614.42C401.284 613.081 403.042 611.908 405.341 611.908Z" fill="#17CE8A"/>
<path fill-rule="evenodd" clip-rule="evenodd" d="M147.248 491.28L147.248 467.932C147.248 467.932 369.463 368.182 371.123 369.131L592.274 470.178V491.792C592.274 491.792 592.274 493.947 590.119 495.025L372.902 620.292C371.241 621.241 368.633 621.241 366.973 620.292L148.552 494.481C146.892 493.533 147.248 491.28 147.248 491.28Z" fill="#405FCB"/>
<path fill-rule="evenodd" clip-rule="evenodd" d="M148.293 466.405L367.2 342.112C368.86 341.164 371.469 341.164 373.129 342.112L591.167 468.56C592.827 469.509 592.827 471.05 591.167 471.999L375.026 596.225C373.366 597.173 370.757 597.173 369.097 596.225L148.412 469.844C146.752 468.895 146.633 467.354 148.293 466.405Z" fill="#4D73F8"/>
<path fill-rule="evenodd" clip-rule="evenodd" d="M280.047 465.651L367.992 414.735C368.648 414.339 369.696 414.339 370.482 414.735L458.952 466.048C459.607 466.444 459.607 467.106 458.952 467.502L371.138 518.286C370.482 518.683 369.434 518.683 368.648 518.286L280.047 466.973C279.392 466.577 279.392 466.048 280.047 465.651Z" fill="#405FCB"/>
<path fill-rule="evenodd" clip-rule="evenodd" d="M296.227 475.101C296.227 475.101 366.881 434.343 367.47 434.05C368.059 433.757 369.09 433.757 369.679 434.05C370.268 434.343 443.212 475.302 443.212 475.302C443.801 475.595 443.801 476.18 443.212 476.619L370.851 518.584C370.262 518.876 368.983 518.876 368.394 518.584L296.227 476.418C295.638 475.979 295.638 475.394 296.227 475.101Z" fill="#F9F9FE"/>
<path fill-rule="evenodd" clip-rule="evenodd" d="M348.535 647.074V706.697H340.42V647.074H348.535Z" fill="#F32626"/>
<path fill-rule="evenodd" clip-rule="evenodd" d="M344.478 705.454C346.777 705.454 348.535 706.034 348.535 706.696C348.535 707.359 346.777 707.939 344.478 707.939C342.178 707.939 340.42 707.359 340.42 706.696C340.42 706.034 342.178 705.454 344.478 705.454Z" fill="#F32626"/>
<path fill-rule="evenodd" clip-rule="evenodd" d="M344.478 645.722C346.777 645.722 348.535 646.354 348.535 647.075C348.535 647.796 346.777 648.427 344.478 648.427C342.178 648.427 340.42 647.796 340.42 647.075C340.42 646.354 342.178 645.722 344.478 645.722Z" fill="#F67C7C"/>
<path fill-rule="evenodd" clip-rule="evenodd" d="M389.211 258.22V460.424H381.096V258.22H389.211Z" fill="#FFD215"/>
<path fill-rule="evenodd" clip-rule="evenodd" d="M385.054 458.106C387.353 458.106 389.111 459.278 389.111 460.618C389.111 461.957 387.353 463.13 385.054 463.13C382.754 463.13 380.996 461.957 380.996 460.618C380.996 459.278 382.754 458.106 385.054 458.106Z" fill="#FFD215"/>
<path fill-rule="evenodd" clip-rule="evenodd" d="M409.499 415.791V432.891H401.384V415.791H409.499Z" fill="#FFD215"/>
<path fill-rule="evenodd" clip-rule="evenodd" d="M405.441 430.669C407.741 430.669 409.499 431.842 409.499 433.181C409.499 434.521 407.741 435.693 405.441 435.693C403.142 435.693 401.384 434.521 401.384 433.181C401.384 431.842 403.142 430.669 405.441 430.669Z" fill="#FFD215"/>
<path fill-rule="evenodd" clip-rule="evenodd" d="M405.441 414.438C407.741 414.438 409.499 415.069 409.499 415.79C409.499 416.512 407.741 417.143 405.441 417.143C403.142 417.143 401.384 416.512 401.384 415.79C401.384 415.069 403.142 414.438 405.441 414.438Z" fill="#FFEE50"/>
<path fill-rule="evenodd" clip-rule="evenodd" d="M348.635 177.744V194.844H340.52V177.744H348.635Z" fill="#FFD215"/>
<path fill-rule="evenodd" clip-rule="evenodd" d="M344.577 192.622C346.876 192.622 348.635 193.794 348.635 195.133C348.635 196.473 346.876 197.645 344.577 197.645C342.278 197.645 340.52 196.473 340.52 195.133C340.52 193.794 342.278 192.622 344.577 192.622Z" fill="#FFD215"/>
<path fill-rule="evenodd" clip-rule="evenodd" d="M344.577 176.391C346.876 176.391 348.634 177.023 348.634 177.744C348.634 178.465 346.876 179.096 344.577 179.096C342.277 179.096 340.519 178.465 340.519 177.744C340.519 177.023 342.277 176.391 344.577 176.391Z" fill="#FFEE50"/>
<path fill-rule="evenodd" clip-rule="evenodd" d="M348.634 630.361V613.261H340.519V630.361H340.547C340.529 630.457 340.52 630.553 340.52 630.651C340.52 631.991 342.278 633.163 344.577 633.163C346.876 633.163 348.635 631.991 348.635 630.651C348.635 630.553 348.625 630.457 348.607 630.361H348.634Z" fill="#17CE8A"/>
<path fill-rule="evenodd" clip-rule="evenodd" d="M409.499 329.228V388.85H401.384V329.228H409.499Z" fill="#F32626"/>
<path fill-rule="evenodd" clip-rule="evenodd" d="M405.441 327.876C407.741 327.876 409.499 328.507 409.499 329.228C409.499 329.95 407.741 330.581 405.441 330.581C403.142 330.581 401.384 329.95 401.384 329.228C401.384 328.507 403.142 327.876 405.441 327.876Z" fill="#F67C7C"/>
<path fill-rule="evenodd" clip-rule="evenodd" d="M344.577 611.909C346.876 611.909 348.634 612.54 348.634 613.261C348.634 613.983 346.876 614.614 344.577 614.614C342.277 614.614 340.519 613.983 340.519 613.261C340.519 612.54 342.277 611.909 344.577 611.909Z" fill="#42E7AA"/>
<path fill-rule="evenodd" clip-rule="evenodd" d="M409.499 633.549V650.649H401.384V633.549H409.499Z" fill="#2F80ED"/>
<path fill-rule="evenodd" clip-rule="evenodd" d="M405.441 648.427C407.741 648.427 409.499 649.599 409.499 650.939C409.499 652.279 407.741 653.451 405.441 653.451C403.142 653.451 401.384 652.279 401.384 650.939C401.384 649.599 403.142 648.427 405.441 648.427Z" fill="#2F80ED"/>
<path fill-rule="evenodd" clip-rule="evenodd" d="M405.441 632.197C407.741 632.197 409.499 632.828 409.499 633.549C409.499 634.271 407.741 634.902 405.441 634.902C403.142 634.902 401.384 634.271 401.384 633.549C401.384 632.828 403.142 632.197 405.441 632.197Z" fill="#47D2FF"/>
<path fill-rule="evenodd" clip-rule="evenodd" d="M409.499 231.845V248.945H401.384V231.845H409.499Z" fill="#2F80ED"/>
<path fill-rule="evenodd" clip-rule="evenodd" d="M405.441 246.723C407.741 246.723 409.499 247.895 409.499 249.235C409.499 250.574 407.741 251.747 405.441 251.747C403.142 251.747 401.384 250.574 401.384 249.235C401.384 247.895 403.142 246.723 405.441 246.723Z" fill="#2F80ED"/>
<path fill-rule="evenodd" clip-rule="evenodd" d="M405.441 230.493C407.741 230.493 409.499 231.124 409.499 231.846C409.499 232.567 407.741 233.198 405.441 233.198C403.142 233.198 401.384 232.567 401.384 231.846C401.384 231.124 403.142 230.493 405.441 230.493Z" fill="#47D2FF"/>
<path fill-rule="evenodd" clip-rule="evenodd" d="M409.499 668.716V699.341C406.33 699.341 404.553 699.341 401.384 699.341V668.716H409.499Z" fill="#FF5256"/>
<path fill-rule="evenodd" clip-rule="evenodd" d="M405.441 697.119C407.741 697.119 409.499 698.291 409.499 699.631C409.499 700.971 407.741 702.143 405.441 702.143C403.142 702.143 401.384 700.971 401.384 699.631C401.384 698.291 403.142 697.119 405.441 697.119Z" fill="#FF5256"/>
<path fill-rule="evenodd" clip-rule="evenodd" d="M405.441 667.363C407.741 667.363 409.499 667.994 409.499 668.715C409.499 669.437 407.741 670.068 405.441 670.068C403.142 670.068 401.384 669.437 401.384 668.715C401.384 667.994 403.142 667.363 405.441 667.363Z" fill="#F67C7C"/>
<path fill-rule="evenodd" clip-rule="evenodd" d="M389.21 214.262V224.599C386.041 224.599 384.264 224.599 381.095 224.599V214.262H389.21Z" fill="#FF5256"/>
<path fill-rule="evenodd" clip-rule="evenodd" d="M385.153 222.377C387.452 222.377 389.21 223.549 389.21 224.889C389.21 226.229 387.452 227.401 385.153 227.401C382.854 227.401 381.095 226.229 381.095 224.889C381.095 223.549 382.854 222.377 385.153 222.377Z" fill="#FF5256"/>
<path fill-rule="evenodd" clip-rule="evenodd" d="M385.153 212.91C387.452 212.91 389.21 213.541 389.21 214.262C389.21 214.983 387.452 215.615 385.153 215.615C382.854 215.615 381.095 214.983 381.095 214.262C381.095 213.541 382.854 212.91 385.153 212.91Z" fill="#F67C7C"/>
<path fill-rule="evenodd" clip-rule="evenodd" d="M389.21 478.008V495.108H381.095V478.008H389.21Z" fill="#2F80ED"/>
<path fill-rule="evenodd" clip-rule="evenodd" d="M385.153 492.885C387.452 492.885 389.21 494.057 389.21 495.397C389.21 496.737 387.452 497.909 385.153 497.909C382.854 497.909 381.095 496.737 381.095 495.397C381.095 494.057 382.854 492.885 385.153 492.885Z" fill="#2F80ED"/>
<path fill-rule="evenodd" clip-rule="evenodd" d="M385.153 476.655C387.452 476.655 389.21 477.286 389.21 478.008C389.21 478.729 387.452 479.36 385.153 479.36C382.854 479.36 381.095 478.729 381.095 478.008C381.095 477.286 382.854 476.655 385.153 476.655Z" fill="#47D2FF"/>
<path fill-rule="evenodd" clip-rule="evenodd" d="M385.153 256.867C387.453 256.867 389.211 257.498 389.211 258.22C389.211 258.941 387.453 259.572 385.153 259.572C382.854 259.572 381.096 258.941 381.096 258.22C381.096 257.498 382.854 256.867 385.153 256.867Z" fill="#FFEE50"/>
<path fill-rule="evenodd" clip-rule="evenodd" d="M368.823 188.564V350.869H360.708V188.564H368.823Z" fill="#3C8AFE"/>
<path fill-rule="evenodd" clip-rule="evenodd" d="M364.766 348.55C367.065 348.55 368.823 349.722 368.823 351.061C368.823 352.401 367.065 353.573 364.766 353.573C362.466 353.573 360.708 352.401 360.708 351.061C360.708 349.722 362.466 348.55 364.766 348.55Z" fill="#3C8AFE"/>
<path fill-rule="evenodd" clip-rule="evenodd" d="M364.766 187.211C367.065 187.211 368.823 187.843 368.823 188.564C368.823 189.285 367.065 189.917 364.766 189.917C362.466 189.917 360.708 189.285 360.708 188.564C360.708 187.843 362.466 187.211 364.766 187.211Z" fill="#06AFFF"/>
<path fill-rule="evenodd" clip-rule="evenodd" d="M348.535 413.085V490.18H340.42V413.085H348.535Z" fill="#3C8AFE"/>
<path fill-rule="evenodd" clip-rule="evenodd" d="M344.478 487.475C346.777 487.475 348.535 488.647 348.535 489.987C348.535 491.327 346.777 492.499 344.478 492.499C342.178 492.499 340.42 491.327 340.42 489.987C340.42 488.647 342.178 487.475 344.478 487.475Z" fill="#3C8AFE"/>
<path fill-rule="evenodd" clip-rule="evenodd" d="M344.478 411.733C346.777 411.733 348.535 412.364 348.535 413.085C348.535 413.807 346.777 414.438 344.478 414.438C342.178 414.438 340.42 413.807 340.42 413.085C340.42 412.364 342.178 411.733 344.478 411.733Z" fill="#06AFFF"/>
<path fill-rule="evenodd" clip-rule="evenodd" d="M368.823 380.625V426.611H360.708V380.625H368.823Z" fill="#17CE8A"/>
<path fill-rule="evenodd" clip-rule="evenodd" d="M364.766 423.906C367.065 423.906 368.823 425.078 368.823 426.418C368.823 427.758 367.065 428.93 364.766 428.93C362.466 428.93 360.708 427.758 360.708 426.418C360.708 425.078 362.466 423.906 364.766 423.906Z" fill="#17CE8A"/>
<path fill-rule="evenodd" clip-rule="evenodd" d="M364.766 379.272C367.065 379.272 368.823 379.903 368.823 380.625C368.823 381.346 367.065 381.977 364.766 381.977C362.466 381.977 360.708 381.346 360.708 380.625C360.708 379.903 362.466 379.272 364.766 379.272Z" fill="#42E7AA"/>
<path fill-rule="evenodd" clip-rule="evenodd" d="M409.399 273.774V310.293H401.284V273.774H409.399Z" fill="#17CE8A"/>
<path fill-rule="evenodd" clip-rule="evenodd" d="M405.341 307.588C407.641 307.588 409.399 308.76 409.399 310.099C409.399 311.439 407.641 312.611 405.341 312.611C403.042 312.611 401.284 311.439 401.284 310.099C401.284 308.76 403.042 307.588 405.341 307.588Z" fill="#17CE8A"/>
<path fill-rule="evenodd" clip-rule="evenodd" d="M405.341 272.422C407.641 272.422 409.399 273.053 409.399 273.774C409.399 274.496 407.641 275.127 405.341 275.127C403.042 275.127 401.284 274.496 401.284 273.774C401.284 273.053 403.042 272.422 405.341 272.422Z" fill="#42E7AA"/>
<path fill-rule="evenodd" clip-rule="evenodd" d="M409.399 453.661V496.266L401.284 501V453.661H409.399Z" fill="#17CE8A"/>
<path fill-rule="evenodd" clip-rule="evenodd" d="M405.341 452.309C407.641 452.309 409.399 452.941 409.399 453.662C409.399 454.383 407.641 455.014 405.341 455.014C403.042 455.014 401.284 454.383 401.284 453.662C401.284 452.941 403.042 452.309 405.341 452.309Z" fill="#42E7AA"/>
<path fill-rule="evenodd" clip-rule="evenodd" d="M368.823 465.835V518.771L360.708 514.031V465.835H368.823Z" fill="#F32626"/>
<path fill-rule="evenodd" clip-rule="evenodd" d="M364.766 464.482C367.065 464.482 368.823 465.113 368.823 465.835C368.823 466.556 367.065 467.187 364.766 467.187C362.466 467.187 360.708 466.556 360.708 465.835C360.708 465.113 362.466 464.482 364.766 464.482Z" fill="#F67C7C"/>
<path fill-rule="evenodd" clip-rule="evenodd" d="M348.535 230.493V367.099H340.42V230.493H348.535Z" fill="#F32626"/>
<path fill-rule="evenodd" clip-rule="evenodd" d="M344.478 365.967C346.777 365.967 348.535 366.547 348.535 367.209C348.535 367.872 346.777 368.451 344.478 368.451C342.178 368.451 340.42 367.872 340.42 367.209C340.42 366.547 342.178 365.967 344.478 365.967Z" fill="#F32626"/>
<path fill-rule="evenodd" clip-rule="evenodd" d="M344.478 229.141C346.777 229.141 348.535 229.772 348.535 230.493C348.535 231.214 346.777 231.846 344.478 231.846C342.178 231.846 340.42 231.214 340.42 230.493C340.42 229.772 342.178 229.141 344.478 229.141Z" fill="#F67C7C"/>
</g>
</g>
<defs>
<filter id="filter0_d_281_401" x="23" y="31" width="692.516" height="708.939" filterUnits="userSpaceOnUse" color-interpolation-filters="sRGB">
<feFlood flood-opacity="0" result="BackgroundImageFix"/>
<feColorMatrix in="SourceAlpha" type="matrix" values="0 0 0 0 0 0 0 0 0 0 0 0 0 0 0 0 0 0 127 0" result="hardAlpha"/>
<feOffset dy="28"/>
<feGaussianBlur stdDeviation="2"/>
<feComposite in2="hardAlpha" operator="out"/>
<feColorMatrix type="matrix" values="0 0 0 0 0 0 0 0 0 0.22 0 0 0 0 1 0 0 0 0.21 0"/>
<feBlend mode="normal" in2="BackgroundImageFix" result="effect1_dropShadow_281_401"/>
<feBlend mode="normal" in="SourceGraphic" in2="effect1_dropShadow_281_401" result="shape"/>
</filter>
<clipPath id="clip0_281_401">
<rect width="739" height="739" fill="white"/>
</clipPath>
</defs>
</svg>
