<svg width="739" height="739" viewBox="0 0 739 739" fill="none" xmlns="http://www.w3.org/2000/svg">
<rect width="739" height="739" fill="white"/>
<path d="M298.015 524.609L354.968 491.107L411.921 522.934L354.968 556.435L298.015 524.609Z" fill="#06AFFF"/>
<path d="M308.066 525.296L354.968 497.807L401.87 523.921L354.968 551.41L308.066 525.296Z" fill="#0551CA"/>
<path d="M354.968 524.609V497.807L401.87 523.921L354.968 551.41V524.609Z" fill="#052DAC"/>
<path d="M298.015 524.609V591.612L354.968 625.114V556.435L298.015 524.609Z" fill="#2F80ED"/>
<path d="M354.968 556.436L411.92 522.934V590.272L354.968 625.114V556.436Z" fill="#3C8AFE"/>
<path d="M208.09 571.666L265.043 538.164L321.996 569.991L265.043 603.492L208.09 571.666Z" fill="#FF6677"/>
<path d="M218.14 572.353L265.043 544.864L311.945 570.978L265.043 598.467L218.14 572.353Z" fill="#C13647"/>
<path d="M265.043 571.666V544.864L311.945 570.978L265.043 598.467V571.666Z" fill="#A81525"/>
<path d="M208.09 571.666V638.669L265.043 672.17V603.492L208.09 571.666Z" fill="#DE2424"/>
<path d="M265.043 603.493L321.996 569.991V637.329L265.043 672.171V603.493Z" fill="#F32626"/>
<path d="M388.365 571.666L445.317 538.164L502.27 569.991L445.317 603.492L388.365 571.666Z" fill="#FFEE50"/>
<path d="M398.415 572.353L445.317 544.864L492.219 570.978L445.317 598.467L398.415 572.353Z" fill="#FED354"/>
<path d="M445.317 571.666V544.864L492.22 570.978L445.317 598.467V571.666Z" fill="#EEBD43"/>
<path d="M388.365 571.666V638.669L445.317 672.17V603.492L388.365 571.666Z" fill="#DCB616"/>
<path d="M445.317 603.493L502.27 569.991V637.329L445.317 672.171V603.493Z" fill="#FFD215"/>
<path d="M298.015 624.369L354.968 590.868L411.921 622.694L354.968 656.196L298.015 624.369Z" fill="#42E7AA"/>
<path d="M308.066 625.056L354.968 597.567L401.87 623.681L354.968 651.17L308.066 625.056Z" fill="#139565"/>
<path d="M354.968 624.369V597.567L401.87 623.681L354.968 651.17V624.369Z" fill="#117E56"/>
<path d="M298.015 624.369V691.372L354.968 724.873V656.195L298.015 624.369Z" fill="#16A568"/>
<path d="M354.968 656.195L411.92 622.694V690.032L354.968 724.874V656.195Z" fill="#17CE8A"/>
<path fill-rule="evenodd" clip-rule="evenodd" d="M355.153 653.185L219.888 575.07L45.6785 216.321H671.779L492.819 573.188L355.153 653.185Z" fill="url(#paint0_linear_281_946)" fill-opacity="0.8"/>
<path d="M680.588 224.711V175.143C679.021 158.2 669.624 142.097 653.963 127.394V176.963C669.624 191.666 679.021 207.768 680.588 224.711ZM645.936 169.962V120.393C640.454 115.912 634.19 111.571 627.533 107.511V157.079C634.19 161.14 640.258 165.481 645.936 169.962ZM616.179 150.358V100.789C608.935 96.8688 601.104 92.9481 592.686 89.4475V139.016C601.104 142.657 608.935 146.438 616.179 150.358ZM577.024 147.278V68.3037C640.846 92.528 680.783 127.254 680.783 165.621V244.595C680.783 206.228 641.042 171.502 577.024 147.278Z" fill="#405FCB"/>
<path d="M460.148 109.47V95.188C455.253 94.4878 450.359 93.9277 445.269 93.3676V107.65C450.359 108.07 455.253 108.77 460.148 109.47ZM433.523 91.9674V79.3652C428.433 78.8051 423.343 78.385 418.253 77.9649V90.5671C423.343 91.1272 428.433 91.5473 433.523 91.9674ZM485.794 99.1087V82.0256C481.095 81.1855 476.397 80.3453 471.503 79.6452V96.8683C476.397 97.5684 481.095 98.4085 485.794 99.1087ZM406.115 89.867V64.3825C400.829 64.1025 395.739 63.8224 390.453 63.5424V88.8869C395.543 89.3069 400.829 89.4469 406.115 89.867ZM348.949 88.4668V62.9823C343.663 62.9823 338.182 63.1223 332.896 63.2623V88.6068C338.182 88.6068 343.663 88.4668 348.949 88.4668ZM320.562 89.1669V57.2412C315.277 57.5213 310.186 57.8013 304.901 58.0814V90.007C310.186 89.727 315.277 89.447 320.562 89.1669ZM377.728 88.6068V52.0603C373.029 51.9203 368.135 51.9203 363.241 51.7803C362.653 51.7803 362.066 51.7803 361.479 51.7803V88.3268C362.066 88.3268 362.653 88.3268 363.241 88.3268C368.135 88.4668 373.029 88.4668 377.728 88.6068ZM292.959 90.9872V45.3391C287.868 45.7592 282.778 46.1793 277.884 46.7394V92.3875C282.778 91.9674 287.868 91.4073 292.959 90.9872ZM245.19 41.4184C281.995 35.8175 321.737 32.8769 363.241 33.157C418.644 33.5771 470.719 39.5981 515.747 50.1V129.074C470.524 118.712 418.644 112.551 363.241 112.131C321.737 111.851 281.8 114.791 245.19 120.392V41.4184Z" fill="#405FCB"/>
<path d="M41.7833 168.244V185.747C47.7689 174.03 52.1592 171.044 57.4451 163.781C64.6638 156.553 68.2125 152.859 76.8265 147.258C85.4404 141.657 125.378 119.113 158.268 108.612V93.2089C152.394 95.0292 146.717 96.9896 141.235 99.0899C138.495 100.07 135.754 101.19 133.013 102.17C105.996 111.832 78.5884 130.596 78.5884 130.596C78.5884 130.596 46.2861 152.141 41.7833 168.244ZM37.4763 147.959C50.0057 109.452 102.864 76.2659 177.649 55.5422V134.516C102.864 155.24 50.0057 188.426 37.4763 226.933V147.959Z" fill="#405FCB"/>
<path opacity="0.7529" d="M655.375 127.188C671.037 141.891 680.434 157.993 682 174.936V224.505C680.434 207.562 671.037 191.459 655.375 176.757V127.188Z" fill="white"/>
<path d="M628.945 107.165C635.601 111.366 641.866 115.706 647.348 120.047V169.616C641.866 165.135 635.601 160.794 628.945 156.734V107.165Z" fill="white"/>
<path opacity="0.7529" d="M594.098 89.2415C602.321 92.8821 610.152 96.6628 617.591 100.583V150.152C610.347 146.232 602.517 142.311 594.098 138.81V89.2415Z" fill="white"/>
<path d="M471.503 80.3926C476.201 81.0927 481.096 81.9329 485.794 82.773V99.996C481.096 99.1559 476.397 98.3157 471.503 97.6156V80.3926Z" fill="white"/>
<path opacity="0.7529" d="M445.465 93.9744C450.36 94.5345 455.45 95.2346 460.344 95.7947V110.077C455.45 109.377 450.555 108.817 445.465 108.257V93.9744Z" fill="white"/>
<path d="M418.253 78.8513C423.343 79.2714 428.434 79.6915 433.524 80.2516V92.8538C428.434 92.2937 423.343 91.8736 418.253 91.4535V78.8513Z" fill="white"/>
<path opacity="0.7529" d="M390.257 63.7817C395.543 64.0618 400.829 64.2018 405.919 64.6219V89.9664C400.633 89.6863 395.543 89.4063 390.257 89.1262V63.7817Z" fill="white"/>
<path opacity="0.7529" d="M361.675 51.8796C362.263 51.8796 362.85 51.8796 363.437 51.8796C368.332 51.8796 373.03 52.0197 377.924 52.1597V88.7062C373.226 88.5661 368.332 88.5661 363.437 88.4261C362.85 88.4261 362.263 88.4261 361.675 88.4261V51.8796Z" fill="white"/>
<path d="M332.896 63.5022C338.181 63.3622 343.467 63.2222 348.949 63.2222V88.5667C343.663 88.5667 338.181 88.7067 332.896 88.8467V63.5022Z" fill="white"/>
<path opacity="0.7529" d="M305.097 58.3209C310.187 58.0408 315.473 57.6207 320.758 57.4807V89.2663C315.473 89.5464 310.383 89.8264 305.097 90.1065V58.3209Z" fill="white"/>
<path d="M277.689 46.8392C282.779 46.2791 287.673 45.859 292.763 45.439V91.087C287.673 91.5071 282.583 91.9272 277.689 92.4873V69.6633V46.8392Z" fill="white"/>
<path d="M137.907 366.942V353.64C141.627 355.04 145.542 356.441 149.458 357.841V371.143C145.542 369.743 141.823 368.343 137.907 366.942ZM101.298 350.279V325.635C104.43 327.315 107.562 328.996 110.891 330.536V355.18C107.562 353.5 104.43 351.82 101.298 350.279ZM118.721 358.821V329.836C122.245 331.376 125.769 332.916 129.293 334.457V363.442C125.769 361.902 122.245 360.361 118.721 358.821ZM71.7362 331.236V299.03C74.0854 300.851 76.6305 302.811 79.1755 304.631V336.837C76.6305 334.877 74.2812 333.056 71.7362 331.236ZM85.636 341.038V306.172C88.3768 307.992 91.3134 309.672 94.2499 311.353V346.219C91.1176 344.538 88.3768 342.718 85.636 341.038ZM50.397 310.092V272.286C51.9632 274.386 53.7251 276.346 55.4871 278.307V316.113C53.7251 314.153 52.159 312.193 50.397 310.092ZM59.9898 320.874V271.726C61.9476 273.686 64.1011 275.646 66.2545 277.607V326.755C64.1011 324.795 62.1433 322.835 59.9898 320.874ZM43.1535 299.03V243.441C44.3281 245.541 45.5027 247.641 47.0689 249.742V305.191C45.5027 303.231 44.3281 301.131 43.1535 299.03ZM172.95 311.353C99.1442 290.069 48.2435 256.463 37.4761 217.956V296.93C48.2435 335.437 99.1442 369.043 172.95 390.327V311.353Z" fill="#405FCB"/>
<path d="M389.474 399.287V381.504C402.199 380.944 414.728 380.244 426.866 379.124V396.907C414.728 398.027 402.199 398.727 389.474 399.287ZM329.763 399.427V366.942C337.398 367.222 345.033 367.362 352.864 367.502C358.15 367.502 363.436 367.502 368.722 367.502V399.987C363.436 399.987 358.15 400.128 352.864 399.987C345.033 399.847 337.398 399.707 329.763 399.427ZM272.206 395.087V345.518C284.148 346.918 296.482 347.898 309.207 348.738V398.307C296.678 397.607 284.344 396.487 272.206 395.087ZM446.639 394.947V342.437C458.581 341.037 470.327 339.357 481.682 337.536V389.906C470.327 391.866 458.581 393.546 446.639 394.947ZM511.048 319.893C464.063 330.255 410.03 335.996 352.864 335.576C312.927 335.296 274.947 332.075 239.904 326.334V405.308C274.947 410.909 312.927 414.27 352.864 414.55C410.03 414.97 464.063 409.229 511.048 398.867V319.893V319.893Z" fill="#405FCB"/>
<path d="M590.337 342.438V327.175C641.825 305.471 675.302 276.486 680.784 244.14V259.403C675.302 291.749 641.825 320.734 590.337 342.438ZM681.567 284.328V205.354C680.001 244 638.105 278.446 572.913 302.251V381.225C638.301 357.42 680.001 322.834 681.567 284.328Z" fill="#405FCB"/>
<path d="M680.784 244.14C675.302 276.346 641.825 305.471 590.337 327.175V342.438C641.825 320.734 675.302 291.749 680.784 259.403V244.14Z" fill="#F3F3F3"/>
<path d="M309.208 348.737C296.679 347.897 284.345 346.917 272.208 345.516V395.085C284.15 396.485 296.483 397.466 309.208 398.306V348.737Z" fill="#F3F3F3"/>
<path d="M426.867 379.124C414.533 380.244 402.2 380.944 389.474 381.504V399.287C402.2 398.727 414.729 398.027 426.867 396.907V379.124Z" fill="#F3F3F3"/>
<path d="M481.682 336.976C470.327 338.936 458.581 340.616 446.639 341.877V394.246C458.581 392.846 470.327 391.165 481.682 389.345V336.976Z" fill="#F3F3F3"/>
<path opacity="0.7529" d="M368.723 367.361C363.437 367.361 358.152 367.501 352.866 367.361C345.035 367.361 337.4 367.081 329.765 366.801V399.286C337.4 399.566 345.035 399.706 352.866 399.846C358.152 399.846 363.437 399.846 368.723 399.846V367.361Z" fill="#F3F3F3"/>
<path d="M47.0688 250.02C45.6984 247.92 44.328 245.82 43.1533 243.719V299.169C44.328 301.269 45.5026 303.37 47.0688 305.47V250.02Z" fill="#F3F3F3"/>
<path d="M55.4868 278.725C53.7249 276.765 51.9629 274.665 50.3967 272.704V310.511C51.9629 312.611 53.7249 314.572 55.4868 316.532V278.725Z" fill="#F3F3F3"/>
<path opacity="0.7529" d="M66.4502 277.885C64.2968 275.925 62.1433 273.964 60.1855 272.004V321.153C62.1433 323.113 64.2968 325.073 66.4502 327.034V277.885Z" fill="#F3F3F3"/>
<path d="M79.3705 304.77C76.8254 302.95 74.2804 301.13 71.9312 299.169V331.375C74.2804 333.195 76.8254 335.156 79.3705 336.976V304.77Z" fill="#F3F3F3"/>
<path d="M94.0539 311.631C91.1173 309.951 88.1807 308.13 85.4399 306.45V341.316C88.1807 343.137 91.1173 344.817 94.0539 346.497V311.631Z" fill="#F3F3F3"/>
<path opacity="0.7529" d="M110.89 330.814C107.562 329.274 104.43 327.594 101.298 325.913V350.558C104.43 352.238 107.562 353.918 110.89 355.459V330.814Z" fill="#F3F3F3"/>
<path d="M129.292 334.736C125.768 333.196 122.244 331.655 118.72 330.115V359.1C122.244 360.64 125.768 362.181 129.292 363.721V334.736Z" fill="#F3F3F3"/>
<path opacity="0.7529" d="M149.458 357.98C145.542 356.58 141.822 355.18 137.907 353.779V367.082C141.627 368.482 145.542 369.882 149.458 371.282V357.98Z" fill="#F3F3F3"/>
<defs>
<linearGradient id="paint0_linear_281_946" x1="372.399" y1="215.638" x2="360.096" y2="619.595" gradientUnits="userSpaceOnUse">
<stop stop-color="#4DB0F8" stop-opacity="0"/>
<stop offset="0.89347" stop-color="#405FCB" stop-opacity="0.67"/>
</linearGradient>
</defs>
</svg>
